<?xml version="1.0" encoding="UTF-8"?>
<svg id="a" xmlns="http://www.w3.org/2000/svg" viewBox="0 0 511.57 491.49">
    <defs>
        <style>.b{fill:#fff;}</style>
    </defs>
    <path class="b"
        d="M440,35V317.6c0,2.65-1.05,5.2-2.93,7.07l-92.41,92.4c-1.88,1.88-4.42,2.93-7.07,2.93H205c-8.28,0-15-6.72-15-15v-70c0-8.28,6.72-15,15-15h120c8.28,0,15-6.72,15-15V135c0-8.28-6.72-15-15-15H155c-8.28,0-15,6.72-15,15V405c0,8.28-6.72,15-15,15H55c-8.28,0-15-6.72-15-15V35c0-8.28,6.72-15,15-15H425c8.28,0,15,6.72,15,15Z" />
    <rect class="b" x="210" y="190" width="60" height="60" />
</svg>