<?xml version="1.0" encoding="UTF-8" standalone="no"?>
<svg
   xmlns:dc="http://purl.org/dc/elements/1.1/"
   xmlns:cc="http://creativecommons.org/ns#"
   xmlns:rdf="http://www.w3.org/1999/02/22-rdf-syntax-ns#"
   xmlns:svg="http://www.w3.org/2000/svg"
   xmlns="http://www.w3.org/2000/svg"
   viewBox="0 0 666.66669 666.66669"
   height="666.66669"
   width="666.66669"
   xml:space="preserve"
   id="svg2"
   version="1.1"><metadata
     id="metadata8"><rdf:RDF><cc:Work
         rdf:about=""><dc:format>image/svg+xml</dc:format><dc:type
           rdf:resource="http://purl.org/dc/dcmitype/StillImage" /></cc:Work></rdf:RDF></metadata><defs
     id="defs6"><clipPath
       id="clipPath32"
       clipPathUnits="userSpaceOnUse"><path
         id="path30"
         d="M 0,500 H 500 V 0 H 0 Z" /></clipPath><clipPath
       id="clipPath44"
       clipPathUnits="userSpaceOnUse"><path
         id="path42"
         d="M 0,500 H 500 V 0 H 0 Z" /></clipPath><clipPath
       id="clipPath58"
       clipPathUnits="userSpaceOnUse"><path
         id="path56"
         d="M 0,500 H 500 V 0 H 0 Z" /></clipPath></defs><g
     transform="matrix(1.3333333,0,0,-1.3333333,0,666.66667)"
     id="g10"><path
       id="path12"
       style="fill:none;stroke:#000000;stroke-width:1;stroke-linecap:butt;stroke-linejoin:miter;stroke-miterlimit:10;stroke-dasharray:none;stroke-opacity:1"
       d="M 450,50 H 50 v 400 h 400 z" /><path
       id="path14"
       style="fill:none;stroke:#000000;stroke-width:1;stroke-linecap:butt;stroke-linejoin:miter;stroke-miterlimit:10;stroke-dasharray:none;stroke-opacity:1"
       d="M 400,100 H 100 v 300 h 300 z" /><path
       id="path16"
       style="fill:none;stroke:#000000;stroke-width:1;stroke-linecap:butt;stroke-linejoin:miter;stroke-miterlimit:10;stroke-dasharray:none;stroke-opacity:1"
       d="M 350,150 H 150 v 200 h 200 z" /><path
       id="path18"
       style="fill:none;stroke:#000000;stroke-width:1;stroke-linecap:butt;stroke-linejoin:miter;stroke-miterlimit:10;stroke-dasharray:none;stroke-opacity:1"
       d="M 150,50 H 50 v 400 h 100 z" /><path
       id="path20"
       style="fill:none;stroke:#000000;stroke-width:1;stroke-linecap:butt;stroke-linejoin:miter;stroke-miterlimit:10;stroke-dasharray:none;stroke-opacity:1"
       d="M 450,350 H 50 v 100 h 400 z" /><path
       id="path22"
       style="fill:none;stroke:#000000;stroke-width:1;stroke-linecap:butt;stroke-linejoin:miter;stroke-miterlimit:10;stroke-dasharray:none;stroke-opacity:1"
       d="M 450,50 H 350 v 400 h 100 z" /><path
       id="path24"
       style="fill:none;stroke:#000000;stroke-width:1;stroke-linecap:butt;stroke-linejoin:miter;stroke-miterlimit:10;stroke-dasharray:none;stroke-opacity:1"
       d="M 450,50 H 250 v 100 h 200 z" /><g
       id="g26"><g
         clip-path="url(#clipPath32)"
         id="g28"><g
           transform="translate(520.8657,219.1342)"
           id="g34"><path
             id="path36"
             style="fill:none;stroke:#000000;stroke-width:1;stroke-linecap:butt;stroke-linejoin:miter;stroke-miterlimit:10;stroke-dasharray:none;stroke-opacity:1"
             d="m 0,0 -239.915,-239.915 -70.711,70.71 239.915,239.916 z" /></g></g></g><g
       id="g38"><g
         clip-path="url(#clipPath44)"
         id="g40"><g
           transform="translate(450,435)"
           id="g46"><path
             id="path48"
             style="fill:#000000;fill-opacity:1;fill-rule:nonzero;stroke:none"
             d="m 0,0 v -282.598 c 0,-2.652 -1.054,-5.196 -2.929,-7.071 l -92.412,-92.402 c -1.875,-1.876 -4.419,-2.929 -7.071,-2.929 H -235 c -8.284,0 -15,6.716 -15,15 v 70 c 0,8.284 6.716,15 15,15 h 120 c 8.284,0 15,6.716 15,15 v 170 c 0,8.284 -6.716,15 -15,15 h -170 c -8.284,0 -15,-6.716 -15,-15 v -270 c 0,-8.284 -6.716,-15 -15,-15 h -70 c -8.284,0 -15,6.716 -15,15 V 0 c 0,8.284 6.716,15 15,15 H -15 C -6.716,15 0,8.284 0,0" /></g><path
           id="path50"
           style="fill:#000000;fill-opacity:1;fill-rule:nonzero;stroke:none"
           d="m 280,220 h -60 v 60 h 60 z" /></g></g><g
       id="g52"><g
         clip-path="url(#clipPath58)"
         id="g54"><g
           transform="translate(450,435)"
           id="g60"><path
             id="path62"
             style="fill:#ffffff;fill-opacity:1;fill-rule:nonzero;stroke:none"
             d="m 0,0 v -282.598 c 0,-2.652 -1.054,-5.196 -2.929,-7.071 l -92.412,-92.402 c -1.875,-1.876 -4.419,-2.929 -7.071,-2.929 H -235 c -8.284,0 -15,6.716 -15,15 v 70 c 0,8.284 6.716,15 15,15 h 120 c 8.284,0 15,6.716 15,15 v 170 c 0,8.284 -6.716,15 -15,15 h -170 c -8.284,0 -15,-6.716 -15,-15 v -270 c 0,-8.284 -6.716,-15 -15,-15 h -70 c -8.284,0 -15,6.716 -15,15 V 0 c 0,8.284 6.716,15 15,15 H -15 C -6.716,15 0,8.284 0,0" /></g><path
           id="path64"
           style="fill:#ffffff;fill-opacity:1;fill-rule:nonzero;stroke:none"
           d="m 280,220 h -60 v 60 h 60 z" /></g></g><path
       id="path66"
       style="fill:#ff2929;fill-opacity:1;fill-rule:nonzero;stroke:none"
       d="M 30,430 H 10 v 20 h 20 z" /><path
       id="path68"
       style="fill:#ff2929;fill-opacity:1;fill-rule:nonzero;stroke:none"
       d="M 20,460 H 10 v 10 h 10 z" /><path
       id="path70"
       style="fill:#ff2929;fill-opacity:1;fill-rule:nonzero;stroke:none"
       d="M 40,390 H 10 v 30 h 30 z" /></g></svg>