<?xml version="1.0" encoding="UTF-8"?>
<svg xmlns="http://www.w3.org/2000/svg" viewBox="0 0 400 400">
    <g id="a" />
    <g id="b">
        <g id="c">
            <path
                d="M400,15V297.6c0,2.65-1.05,5.2-2.93,7.07l-92.41,92.4c-1.88,1.88-4.42,2.93-7.07,2.93H165c-8.28,0-15-6.72-15-15v-70c0-8.28,6.72-15,15-15h120c8.28,0,15-6.72,15-15V115c0-8.28-6.72-15-15-15H115c-8.28,0-15,6.72-15,15V385c0,8.28-6.72,15-15,15H15c-8.28,0-15-6.72-15-15V15C0,6.72,6.72,0,15,0H385c8.28,0,15,6.72,15,15Z" />
            <rect x="170" y="170" width="60" height="60" />
        </g>
    </g>
</svg>